# xmcd CD database file
#
# Track frame offsets:
#	150
#	9301
#	15784
#	27672
#	36999
#	49001
#	58263
#	67213
#	73950
#	84527
#	91403
#	104331
#	114315
#	130818
#	144392
#	155248
#	165081
#	178052
#	187173
#	207613
#
# Disc length: 3000 seconds
#
# Revision: 0
# Processed by: cddbd v1.5.2PL0 Copyright (c) Steve Scherf et al.
# Submitted via: CDex 1.70beta2
#
DISCID=210bb614
DTITLE=童謡 - ROCO　こどもじゃず
DYEAR=2013
DGENRE=Jazz
TTITLE0=ビビディ・バビディ・ブー
TTITLE1=かたつむり
TTITLE2=きのこ
TTITLE3=汽車ぽっぽ
TTITLE4=おべんとうばこのうた
TTITLE5=あめふり
TTITLE6=どんぐりころころ
TTITLE7=とんとんとんとんひげじいさん
TTITLE8=メトロポリタン美術館
TTITLE9=コブタヌキツネコ
TTITLE10=ケンカのあとは
TTITLE11=ぐるぐるどっか～ん！
TTITLE12=かめのえんそく
TTITLE13=切手のないおくりもの
TTITLE14=ゆりかごのうた
TTITLE15=きらきらぼし
TTITLE16=赤鼻のトナカイ
TTITLE17=ジングルベル
TTITLE18=思い出のアルバム
TTITLE19=可愛いベイビー
EXTD=
EXTT0=
EXTT1=
EXTT2=
EXTT3=
EXTT4=
EXTT5=
EXTT6=
EXTT7=
EXTT8=
EXTT9=
EXTT10=
EXTT11=
EXTT12=
EXTT13=
EXTT14=
EXTT15=
EXTT16=
EXTT17=
EXTT18=
EXTT19=
PLAYORDER=
